<svg xmlns="http://www.w3.org/2000/svg" version="1.1" xmlns:xlink="http://www.w3.org/1999/xlink" xmlns:svgjs="http://svgjs.dev/svgjs" width="225" height="225"><svg width="225" height="225" viewBox="0 0 225 225" fill="none" xmlns="http://www.w3.org/2000/svg">
<g clip-path="url(#clip0_3703_11802)">
<circle cx="113" cy="113" r="74" fill="white"></circle>
<rect x="49" y="71" width="63" height="79" fill="#CC0020"></rect>
<rect x="113" y="82" width="63" height="79" fill="#383838"></rect>
<path d="M112.5 0C50.3685 0 0 50.3685 0 112.5C0 174.631 50.3685 224.978 112.5 224.978C174.631 224.978 224.978 174.631 224.978 112.5C224.978 50.3685 174.631 0 112.5 0ZM106.685 138.497C106.676 139.213 106.386 139.897 105.877 140.4C105.368 140.904 104.681 141.187 103.965 141.189H81.3016C81.0363 141.189 80.7709 141.189 80.5056 141.189C76.7519 141.135 73.0455 140.343 69.598 138.858C66.1505 137.372 63.0293 135.222 60.4128 132.53C55.1285 127.093 52.2203 119.78 52.3281 112.199C52.4358 104.618 55.5507 97.3902 60.9874 92.1059C66.4241 86.8216 73.7373 83.9135 81.3182 84.0212H103.982C104.688 84.0311 105.363 84.3151 105.865 84.8132C106.366 85.3113 106.654 85.9846 106.668 86.6911V103.274C106.659 103.968 106.385 104.632 105.902 105.131C105.419 105.629 104.764 105.924 104.07 105.955H81.2961C79.5368 105.955 77.8496 106.654 76.6056 107.898C75.3617 109.142 74.6628 110.829 74.6628 112.588C74.6628 114.348 75.3617 116.035 76.6056 117.279C77.8496 118.523 79.5368 119.222 81.2961 119.222H104.131C104.819 119.259 105.466 119.557 105.943 120.053C106.42 120.55 106.691 121.209 106.701 121.897L106.685 138.497ZM142.996 141.194H140.017L125.75 156.119C125.571 156.327 125.346 156.492 125.092 156.599C124.839 156.706 124.565 156.754 124.291 156.738H120.504C119.824 156.719 119.176 156.445 118.688 155.971C118.2 155.497 117.907 154.858 117.867 154.179V121.809C117.908 121.116 118.212 120.466 118.716 119.99C119.221 119.515 119.888 119.25 120.582 119.249H143.019C144.778 119.249 146.465 118.55 147.709 117.307C148.953 116.063 149.652 114.375 149.652 112.616C149.652 110.857 148.953 109.17 147.709 107.926C146.465 106.682 144.778 105.983 143.019 105.983H120.532C119.847 105.97 119.192 105.699 118.698 105.225C118.204 104.751 117.908 104.107 117.867 103.424V86.5971C117.908 85.9106 118.207 85.2649 118.704 84.7901C119.202 84.3152 119.861 84.0464 120.548 84.0378H143.013C150.523 84.1423 157.69 87.1989 162.963 92.5464C168.237 97.894 171.194 105.103 171.194 112.613C171.194 120.124 168.237 127.333 162.963 132.68C157.69 138.028 150.523 141.084 143.013 141.189L142.996 141.194Z" fill="white"></path>
</g>
<defs>
<clipPath id="SvgjsClipPath1001">
<rect width="225" height="225" fill="white"></rect>
</clipPath>
</defs>
</svg><style>@media (prefers-color-scheme: light) { :root { filter: none; } }
@media (prefers-color-scheme: dark) { :root { filter: none; } }
</style></svg>